<svg width="40" height="29" viewBox="0 0 40 29" fill="none" xmlns="http://www.w3.org/2000/svg">
<path d="M8.84615 16.8282L16.1538 24.1359C16.6667 24.6487 16.9124 25.247 16.891 25.9308C16.8697 26.6145 16.6239 27.2128 16.1538 27.7256C15.641 28.2385 15.0321 28.5056 14.3269 28.5269C13.6218 28.5483 13.0128 28.3026 12.5 27.7897L0.769231 16.059C0.25641 15.5462 0 14.9479 0 14.2641C0 13.5803 0.25641 12.9821 0.769231 12.4692L12.5 0.738462C13.0128 0.225641 13.6218 -0.0200855 14.3269 0.00128205C15.0321 0.0226496 15.641 0.289744 16.1538 0.802564C16.6239 1.31538 16.8697 1.91368 16.891 2.59744C16.9124 3.2812 16.6667 3.87949 16.1538 4.39231L8.84615 11.7H37.4359C38.1624 11.7 38.7714 11.9457 39.2628 12.4372C39.7543 12.9286 40 13.5376 40 14.2641C40 14.9906 39.7543 15.5996 39.2628 16.091C38.7714 16.5825 38.1624 16.8282 37.4359 16.8282H8.84615Z" fill="#5D4C30"/>
</svg>
