<svg width="564" height="502" viewBox="0 0 564 502" fill="none" xmlns="http://www.w3.org/2000/svg">
<g clip-path="url(#clip0_36_3)">
<path d="M424 479L304 155" stroke="#5D4C30" stroke-width="25" stroke-linecap="round"/>
<path d="M424 479L48 478" stroke="#5D4C30" stroke-width="25" stroke-linecap="round"/>
<path d="M47 317L47 479" stroke="#5D4C30" stroke-width="25" stroke-linecap="round"/>
<path d="M92 434L208 434" stroke="#5D4C30" stroke-width="25" stroke-linecap="round"/>
<path d="M92 389L208 389" stroke="#5D4C30" stroke-width="25" stroke-linecap="round"/>
<path d="M92 344L208 344" stroke="#5D4C30" stroke-width="25" stroke-linecap="round"/>
<path d="M92 299L208 299" stroke="#5D4C30" stroke-width="25" stroke-linecap="round"/>
<path d="M92 209L208 209" stroke="#5D4C30" stroke-width="25" stroke-linecap="round"/>
<path d="M92 164L208 164" stroke="#5D4C30" stroke-width="25" stroke-linecap="round"/>
<path d="M92 119L208 119" stroke="#5D4C30" stroke-width="25" stroke-linecap="round"/>
<path d="M92 74L208 74" stroke="#5D4C30" stroke-width="25" stroke-linecap="round"/>
<path d="M92 254L208 254" stroke="#5D4C30" stroke-width="25" stroke-linecap="round"/>
<path d="M466.359 330.711H473.391V87.5469C473.391 81.2969 473.781 75.4375 474.562 69.9688C475.344 64.3047 477.004 59.4219 479.543 55.3203C482.277 51.2188 486.184 47.9961 491.262 45.6523C496.535 43.1133 503.664 41.8438 512.648 41.8438C522.609 41.8438 530.422 43.1133 536.086 45.6523C541.945 47.9961 546.34 51.2188 549.27 55.3203C552.199 59.4219 554.055 64.3047 554.836 69.9688C555.617 75.4375 556.008 81.2969 556.008 87.5469V384.617C556.008 393.211 555.715 401.512 555.129 409.52C554.738 417.527 553.176 424.754 550.441 431.199C547.902 437.449 543.605 442.527 537.551 446.434C531.691 450.145 523.391 452 512.648 452H473.977C464.797 452 457.082 450.242 450.832 446.727C444.777 443.016 439.699 438.621 435.598 433.543C431.496 428.27 428.176 422.801 425.637 417.137C423.293 411.473 421.438 406.688 420.07 402.781L331.594 163.133H324.562V406.297C324.562 412.547 324.172 418.504 323.391 424.168C322.609 429.637 320.852 434.422 318.117 438.523C315.578 442.625 311.672 445.945 306.398 448.484C301.32 450.828 294.289 452 285.305 452C275.148 452 267.141 450.828 261.281 448.484C255.422 445.945 251.027 442.625 248.098 438.523C245.168 434.422 243.312 429.637 242.531 424.168C241.75 418.504 241.359 412.547 241.359 406.297V109.227C241.359 100.828 241.555 92.625 241.945 84.6172C242.531 76.4141 244.191 69.1875 246.926 62.9375C249.66 56.4922 253.957 51.4141 259.816 47.7031C265.871 43.7969 274.367 41.8438 285.305 41.8438H323.977C333.742 41.8438 341.652 43.7969 347.707 47.7031C353.957 51.4141 359.035 55.5156 362.941 60.0078C367.238 65.2812 370.656 71.3359 373.195 78.1719L466.359 330.711Z" fill="#5D4C30"/>
</g>
<defs>
<clipPath id="clip0_36_3">
<rect width="564" height="502" fill="white"/>
</clipPath>
</defs>
</svg>
